<?xml version="1.0" standalone="no"?>
<!DOCTYPE svg PUBLIC "-//W3C//DTD SVG 1.1//EN" "http://www.w3.org/Graphics/SVG/1.1/DTD/svg11.dtd" >
<svg xmlns="http://www.w3.org/2000/svg" xmlns:xlink="http://www.w3.org/1999/xlink" version="1.1">
<metadata>
Created by FontForge 20170731 at Fri Nov 24 21:39:12 2017
 By ,,,
Copyright (c) 2015 Fontworks Inc. All Rights Reserved.
</metadata>
<defs>
<font id="TsukushiARoundGothic-Regular" horiz-adv-x="1000" >
  <font-face 
    font-family="Tsukushi A Round Gothic Regular"
    font-weight="400"
    font-stretch="normal"
    units-per-em="1000"
    panose-1="2 2 4 0 0 0 0 0 0 0"
    ascent="880"
    descent="-120"
    x-height="467"
    cap-height="738"
    bbox="-35 -257 947 880"
    underline-thickness="50"
    underline-position="-150"
    unicode-range="U+0021-754C"
  />
<missing-glyph 
d="M100 -120v1000h800v-1000h-800zM813 830h-626l313 -407zM850 790l-316 -411l316 -411v822zM466 379l-316 411v-822zM500 335l-312 -405h624z" />
    <glyph glyph-name=".notdef" 
d="M100 -120v1000h800v-1000h-800zM813 830h-626l313 -407zM850 790l-316 -411l316 -411v822zM466 379l-316 411v-822zM500 335l-312 -405h624z" />
    <glyph glyph-name=".null" horiz-adv-x="0" 
 />
    <glyph glyph-name="nonmarkingreturn" horiz-adv-x="333" 
 />
    <glyph glyph-name="exclam" unicode="!" horiz-adv-x="343" 
d="M197 240q0 -13 -9 -21q-7 -7 -18 -7q-25 0 -25 26v41q0 69 -3 201q-2 111 -6 222v2q0 35 35 35q36 0 36 -37q0 -62 -5 -228q-5 -167 -5 -212v-22zM218 52q0 -21 -15 -34q-14 -11 -31 -11q-20 0 -34 13t-14 31q0 23 17 37q15 12 31 12q28 0 39 -21q4 -7 6 -16l1 -6v-5z
" />
    <glyph glyph-name="quotedbl" unicode="&#x22;" horiz-adv-x="342" 
d="M238 517q-21 0 -24 21q-2 21 -4 78l-1 23l-1 23q0 27 -1 41q-2 36 31 36q13 0 23 -9q10 -10 10 -26v-32q-1 -24 -2 -47q-2 -62 -5 -87q-3 -21 -26 -21zM102 517q-21 0 -24 21q-2 21 -4 78l-1 23l-1 23q0 27 -1 41q-1 21 14 31q5 3 11 4l4 1h2q32 0 32 -35v-21
q-1 -24 -1 -47q-2 -70 -6 -98q-3 -21 -25 -21z" />
    <glyph glyph-name="numbersign" unicode="#" horiz-adv-x="577" 
d="M395 251q-12 -1 -14 -11q-28 -153 -36 -208q-4 -26 -29 -26q-27 0 -27 25v4l1 3q8 38 24 126q16 84 16 85q0 4 -7 4h-117q-11 0 -14 -13l-6 -32l-6 -32q-6 -36 -11 -59q-11 -62 -14 -85q-4 -26 -29 -26q-27 0 -27 25v4l1 3q7 33 22 114q17 89 17 94q0 6 -5 6h-29
q-21 -1 -27 -1h-5q-6 1 -10 3q-14 5 -14 23q0 27 27 27h30q24 -1 35 -1q10 0 12 10q1 7 7 35l2 13l3 14l5 29q14 75 14 78q0 5 -7 5h-30q-21 0 -30 -1h-5q-6 1 -10 3q-14 5 -14 23q0 26 27 26h33q26 -1 39 -1q7 0 9 8l31 167q4 25 29 25q27 0 27 -25l-32 -167v-4q0 -5 6 -5
h119q3 0 6 2q3 3 4 7l31 167q4 25 29 25q27 0 27 -25q0 -2 -32 -166v-2l-1 -2q0 -3 2 -4l3 -1h2l51 1h1q31 0 31 -26t-32 -26h-41q-19 0 -23 -2q-5 -2 -7 -12l-31 -158v-4q0 -7 8 -7l55 1h1q30 0 30 -26q0 -11 -8 -18q-8 -9 -23 -9h-64zM333 302q9 0 10 10q1 7 6 32
q6 28 11 56q14 76 14 81q0 6 -8 6h-26q-11 0 -33 1h-58q-10 0 -12 -12l-31 -162v-3l-1 -3q0 -6 8 -6h120z" />
    <glyph glyph-name="dollar" unicode="$" horiz-adv-x="537" 
d="M300 -70q0 -28 -28 -28q-27 0 -27 27v1q0 7 1 30v35q0 7 -6 7q-95 8 -156 60q-21 18 -34 40q-11 17 -11 27q0 30 32 30q17 0 25 -15q42 -76 144 -87h2q5 0 5 6q0 43 1 148v163q0 7 -5 10l-31 16l-31 16q-109 53 -109 161q0 63 43 108q46 50 124 57q7 0 7 8q0 35 -1 48v2
q0 13 9 22q7 7 18 7q28 0 28 -29v-51q0 -8 5 -9q68 -9 115 -45q40 -30 40 -54q0 -30 -28 -30q-15 0 -27 16q-24 34 -62 51q-13 6 -25 9q-5 1 -9 2h-5q-5 0 -5 -6v-120q-1 -86 -1 -136q0 -8 6 -11q46 -23 64 -33q130 -71 130 -188q0 -72 -52 -126q-54 -56 -140 -66
q-7 0 -7 -8q0 -13 1 -34v-31zM384 93q51 42 51 101q0 65 -65 117q-21 17 -45 30q-9 4 -16 7q-6 3 -7 3q-4 0 -4 -3q0 -51 1 -147v-135q0 -7 5 -7q38 0 80 34zM242 447q1 -1 3 -1q3 0 3 4v126q-1 79 -1 110q0 6 -4 6q-35 0 -70 -28q-43 -33 -43 -84q0 -75 80 -117z" />
    <glyph glyph-name="percent" unicode="%" horiz-adv-x="747" 
d="M61 558q0 183 133 183t133 -186q0 -11 -1 -22q0 -14 -2 -28q-5 -35 -16 -62q-33 -77 -114 -77q-133 0 -133 192zM420 193q0 185 132 185q71 0 105 -58q29 -49 29 -129v-19q-1 -13 -3 -26q-4 -36 -15 -63q-32 -81 -116 -81q-132 0 -132 191zM146 -4q-26 0 -26 26q0 9 6 18
q108 159 254 382q163 248 196 308q7 12 20 12q11 0 20 -7q9 -8 9 -18q0 -7 -4 -12q-17 -26 -81 -124q-12 -18 -30 -46l-16 -24l-16 -25q-41 -63 -69 -105q-184 -283 -240 -371q-8 -14 -23 -14zM261 463q7 20 11 48q2 20 2 45q0 56 -16 92q-20 48 -64 48q-48 0 -67 -50
q-8 -19 -11 -46q-2 -19 -2 -45q0 -82 26 -117q20 -27 54 -27q48 0 67 52zM620 100q7 21 10 48q3 21 3 46q0 76 -27 112q-20 27 -54 27q-48 0 -67 -50q-8 -20 -11 -47q-2 -19 -2 -45q0 -144 80 -144q48 0 68 53z" />
    <glyph glyph-name="ampersand" unicode="&#x26;" horiz-adv-x="838" 
d="M764 13q-13 -4 -28 -6q-7 0 -13 -1h-9q-77 0 -170 96q-6 6 -12 6q-2 0 -4 -1q-3 -1 -5 -3q-6 -6 -13 -11q-9 -8 -19 -16q-25 -19 -52 -34q-77 -44 -152 -44q-90 0 -149 59q-56 56 -56 135q0 74 58 140q22 25 54 50q12 10 27 20q10 8 25 18q7 5 7 8q0 2 -3 5
q-85 86 -85 162q0 64 49 107q46 40 106 40q64 0 106 -43q40 -42 40 -100q0 -83 -124 -174q-6 -4 -6 -7t6 -9q34 -36 91 -100q51 -56 94 -105q4 -4 6 -4t16 18q16 21 33 50q50 85 76 178q6 19 26 19q13 0 23 -8t10 -22q0 -2 -2 -9q-2 -8 -5 -19q-10 -30 -24 -63
q-43 -99 -108 -179q-5 -5 -5 -10q0 -3 13 -17q15 -16 33 -30q53 -43 94 -43q19 0 44 10q6 3 12 3q12 0 21 -10q8 -9 8 -21q0 -24 -34 -35zM410 602q0 41 -28 67q-27 24 -65 24q-41 0 -68 -28t-27 -70q0 -39 37 -91q13 -18 26 -32q12 -13 15 -13q1 0 13 9q14 10 28 22
q41 34 53 55q16 26 16 57zM395 275q-98 113 -105 113q-3 0 -8 -3q-71 -51 -99 -83q-43 -50 -43 -109t44 -99t110 -40q61 0 134 44q65 39 65 59q0 5 -98 118z" />
    <glyph glyph-name="quotesingle" unicode="'" horiz-adv-x="267" 
d="M108 538q-2 22 -5 78l-1 23v23q-2 29 -2 41q-1 20 13 30q5 3 11 5l5 1h3q34 0 34 -35q0 -125 -8 -160q-6 -27 -26 -27q-21 0 -24 21z" />
    <glyph glyph-name="parenleft" unicode="(" horiz-adv-x="410" 
d="M294 -72q-86 78 -133 197q-45 114 -45 242q0 127 44 239q46 119 132 199q11 10 24 10q27 0 27 -27q0 -14 -13 -26q-78 -68 -120 -174q-40 -102 -40 -217q0 -116 41 -218q42 -108 121 -177q12 -10 12 -24q0 -13 -9 -22q-9 -10 -22 -10q-11 0 -19 8z" />
    <glyph glyph-name="parenright" unicode=")" horiz-adv-x="410" 
d="M97 -79q-12 0 -21 10q-9 9 -9 21q0 14 12 24q78 68 121 176q40 102 40 219q0 116 -40 217q-42 107 -119 174q-13 12 -13 25q0 28 27 28q11 0 24 -11q86 -80 132 -198q44 -112 44 -238q0 -128 -45 -242q-47 -119 -133 -197q-8 -8 -20 -8z" />
    <glyph glyph-name="asterisk" unicode="*" horiz-adv-x="426" 
d="M187 488q1 11 3 31l2 16l2 15v9q0 9 -3 9q-1 0 -15 -10l-12 -9l-12 -9q-15 -11 -26 -17q-10 -5 -17 -5q-26 0 -26 26q0 12 13 20q13 9 60 26q18 7 18 12q0 6 -19 13q-5 2 -13 5l-15 5q-18 6 -25 9q-14 7 -14 23q0 26 25 26q10 0 61 -38q12 -9 16 -9t4 8v5l-1 6
q-1 5 -2 15l-2 16q-3 20 -3 30v5q1 5 3 9q6 13 22 13q28 0 28 -24v-2l-3 -30l-2 -16l-2 -16l-1 -7v-5q0 -8 4 -8q3 0 16 8q5 3 12 8l13 10q17 12 26 18q7 4 14 4q11 0 19 -8t8 -19q0 -19 -74 -47q-14 -6 -14 -9q0 -5 14 -11l13 -5l15 -6q18 -7 27 -11q18 -8 18 -26
q0 -24 -24 -24h-2l-3 1q-4 1 -11 5q-17 9 -50 35q-11 8 -15 8t-4 -8v-8q1 -5 2 -14l2 -16q3 -20 3 -30q0 -34 -28 -34q-10 0 -17 8q-8 8 -8 23v1z" />
    <glyph glyph-name="plus" unicode="+" horiz-adv-x="562" 
d="M308 53q0 -27 -28 -27t-28 28q0 66 2 148q0 14 -16 14h-113q-6 -1 -11 -1h-15q-14 -1 -21 9q-7 7 -7 18q0 26 25 26h1q20 -1 65 -1h79q13 0 13 14v70q-1 42 -2 67v7q1 5 4 9q6 12 24 12q28 0 28 -26v-138q0 -15 15 -15h76q43 0 63 1h1q28 0 28 -26q0 -11 -7 -18
q-9 -9 -22 -9h-35l-36 1h-69q-14 0 -14 -16v-147z" />
    <glyph glyph-name="comma" unicode="," horiz-adv-x="272" 
d="M60 -72q0 10 85 155q11 18 29 18q13 0 23 -10q11 -10 11 -23q0 -11 -7 -21q-71 -104 -87 -123q-16 -21 -27 -21q-27 0 -27 25z" />
    <glyph glyph-name="hyphen" unicode="-" horiz-adv-x="473" 
d="M378 272q31 0 31 -30q0 -32 -33 -32q-154 2 -170 2q-28 0 -108 -2h-4l-5 1q-6 1 -11 3q-13 8 -13 27q0 31 30 31h1q40 -1 136 -1h74q41 0 71 1h1z" />
    <glyph glyph-name="hyphen" unicode="&#x2011;" horiz-adv-x="473" 
d="M378 272q31 0 31 -30q0 -32 -33 -32q-154 2 -170 2q-28 0 -108 -2h-4l-5 1q-6 1 -11 3q-13 8 -13 27q0 31 30 31h1q40 -1 136 -1h74q41 0 71 1h1z" />
    <glyph glyph-name="period" unicode="." horiz-adv-x="269" 
d="M170 18q-15 -15 -37 -15q-48 0 -48 49q0 23 17 36q14 12 32 12q24 0 39 -17q11 -14 11 -30q0 -20 -14 -35z" />
    <glyph glyph-name="slash" unicode="/" horiz-adv-x="416" 
d="M71 -31q-27 0 -27 25q0 7 3 14q62 155 156 414q94 257 115 330q6 19 25 19q28 0 28 -25q0 -6 -1 -9q-18 -52 -127 -350l-21 -58l-21 -58q-24 -66 -40 -111q-43 -118 -62 -170q-7 -21 -28 -21z" />
    <glyph glyph-name="zero" unicode="0" horiz-adv-x="579" 
d="M141 61q-61 64 -72 181q-7 81 -7 136q0 49 5 112q10 121 71 189q59 65 152 65q92 0 150 -62q61 -64 72 -181q7 -79 7 -132q0 -27 -1 -49q-1 -31 -4 -58q-7 -70 -27 -121q-54 -142 -197 -142q-91 0 -149 62zM435 184q13 45 18 106q2 23 3 48v39q0 62 -6 117q-8 91 -50 142
q-43 52 -110 52q-68 0 -110 -54q-43 -53 -51 -145q-5 -62 -5 -113q0 -144 30 -220q39 -101 136 -101q106 0 145 129z" />
    <glyph glyph-name="one" unicode="1" horiz-adv-x="579" 
d="M338 33q0 -32 -34 -32q-32 0 -32 30v45l1 26v28q1 77 1 129q2 168 2 257q0 87 -1 103q-2 29 -12 39q-10 11 -40 11h-11q-6 0 -12 -1h-3q-32 0 -32 30q0 12 8 22q9 10 24 11q20 1 49 1q89 0 92 -81q1 -17 1 -79q0 -41 -1 -175q-1 -133 -1 -211q0 -104 1 -152v-1z" />
    <glyph glyph-name="two" unicode="2" horiz-adv-x="579" 
d="M460 12q-30 1 -173 1h-102q-51 0 -72 -1h-2q-56 0 -56 45q0 25 22 50q25 28 64 69q14 15 35 37l38 38q100 101 149 160q63 74 63 149q0 62 -43 96q-38 29 -93 29q-48 0 -86 -23q-43 -27 -61 -78q-8 -25 -31 -25q-32 0 -32 32q0 14 12 37q14 27 38 50q64 63 163 63
q90 0 147 -54q53 -50 53 -124q0 -88 -75 -181q-46 -57 -142 -150l-37 -37l-37 -36q-42 -42 -72 -77q-2 -2 -2 -4q0 -8 13 -8q52 0 167 3h42l41 1q43 1 69 1q37 0 37 -31q0 -32 -36 -32h-1z" />
    <glyph glyph-name="three" unicode="3" horiz-adv-x="579" 
d="M254 380q-29 0 -29 30q0 29 27 29h36q56 1 90 38q32 36 32 91q0 15 -4 31q-6 21 -17 38q-33 47 -106 47q-53 0 -92 -28q-14 -10 -26 -23l-8 -10l-3 -4l-3 -4q-8 -12 -23 -12q-12 0 -21 9q-10 10 -10 22q0 9 12 26q14 18 35 35q59 44 140 44q83 0 135 -47q53 -47 53 -125
q0 -51 -28 -92q-29 -44 -82 -61q72 -18 112 -72q37 -51 37 -123q0 -97 -68 -160q-68 -64 -171 -64q-101 0 -169 55q-25 20 -40 43q-13 20 -13 32q0 14 11 24q9 9 22 9q17 0 25 -14q58 -89 169 -89q72 0 121 48q48 47 48 117q0 81 -48 122q-44 38 -118 38h-26z" />
    <glyph glyph-name="four" unicode="4" horiz-adv-x="579" 
d="M426 32q0 -29 -30 -29q-12 0 -21 8q-10 8 -10 22v60q0 39 1 83q-65 -1 -150 -1q-76 -1 -86 -1q-77 0 -77 59q0 30 23 63q42 60 146 207q93 132 155 219q10 14 26 14q12 0 22 -9t10 -22q0 -11 -9 -23q-29 -38 -144 -195q-44 -60 -90 -123q-40 -56 -64 -89q-11 -15 -11 -27
q0 -14 13 -17q11 -3 59 -3q76 0 178 3v77q0 97 -1 125v1q0 33 30 33q29 0 29 -34v-81q0 -52 -1 -120q20 1 41 1q7 1 15 1h13q22 1 25 1h1q27 0 27 -29q0 -28 -30 -28h-30q-27 0 -62 -1l2 -144v-1z" />
    <glyph glyph-name="five" unicode="5" horiz-adv-x="579" 
d="M153 371l-8 -2h-4q-45 0 -45 46q0 10 14 109q13 88 21 139q12 68 88 68h48q26 -1 63 -1h110q29 0 29 -28t-29 -28q-14 0 -104 1h-106q-40 0 -45 -35l-28 -186q-1 -5 -1 -12q0 -10 7 -10q4 0 17 5q49 18 106 18q114 0 175 -70q52 -60 52 -146q0 -95 -62 -162
q-70 -75 -189 -75q-83 0 -146 38q-54 33 -54 62q0 13 10 23q9 10 21 10q13 0 23 -12q54 -63 147 -63q91 0 143 57q47 51 47 122q0 74 -51 120q-49 43 -121 43q-54 0 -103 -23q-14 -6 -25 -8z" />
    <glyph glyph-name="six" unicode="6" horiz-adv-x="579" 
d="M466 72q-65 -72 -174 -72q-104 0 -169 71q-61 67 -61 168q0 166 142 346q51 64 105 111q49 42 66 42q14 0 24 -10q9 -10 9 -23q0 -16 -14 -24q-117 -78 -191 -193q-25 -38 -42 -74q-5 -14 -9 -24q-3 -9 -3 -11t1 -2q3 0 8 4q65 49 147 49q100 0 161 -63q56 -59 56 -144
q0 -88 -56 -151zM406 344q-47 35 -110 35q-75 0 -124 -47q-49 -46 -49 -115q0 -67 45 -113q48 -49 124 -49q72 0 121 45q51 46 51 119q0 81 -58 125z" />
    <glyph glyph-name="seven" unicode="7" horiz-adv-x="579" 
d="M113 672q-30 0 -30 29q0 28 30 29h310q86 0 86 -69q0 -25 -15 -54q-26 -48 -77 -134l-41 -69l-40 -69q-94 -168 -124 -294q-7 -34 -36 -34q-31 0 -31 33q0 4 2 14q31 120 130 295l41 71l21 35l20 35q48 82 73 132q9 18 9 30q0 24 -33 24h-42q-40 -1 -88 -2
q-130 -1 -164 -2h-1z" />
    <glyph glyph-name="eight" unicode="8" horiz-adv-x="579" 
d="M489 336q41 -54 41 -125q0 -103 -77 -163q-68 -53 -166 -53q-101 0 -168 58q-70 60 -70 158q0 68 42 123q40 53 101 73q-45 14 -75 57q-31 44 -31 96q0 77 55 128q58 53 148 53q94 0 150 -52q54 -50 54 -125q0 -52 -28 -95q-30 -45 -80 -62q64 -17 104 -71zM394 655
q-41 36 -105 36q-61 0 -102 -38q-42 -38 -42 -95q0 -54 36 -88q39 -37 106 -37h12q9 1 19 2q28 4 50 15q66 32 66 113q0 56 -40 92zM415 337q-49 41 -126 41q-75 0 -126 -46q-54 -48 -54 -122q0 -75 54 -119q50 -41 126 -41q79 0 130 45t51 115q0 82 -55 127z" />
    <glyph glyph-name="nine" unicode="9" horiz-adv-x="579" 
d="M176 37q0 17 16 28q105 71 182 184q27 41 45 79q15 32 15 43q0 2 -2 2q-3 0 -9 -6q-55 -54 -148 -54q-88 0 -149 52q-67 58 -67 157q0 102 70 164q64 57 159 57q98 0 163 -63q67 -65 67 -174q0 -165 -136 -344q-50 -66 -104 -112q-49 -43 -70 -43q-32 0 -32 30zM408 646
q-48 43 -118 43q-75 0 -125 -47q-51 -47 -51 -119q0 -76 52 -120q47 -40 115 -40q74 0 125 48q52 48 52 120q0 71 -50 115z" />
    <glyph glyph-name="colon" unicode=":" horiz-adv-x="286" 
d="M172 353q-15 -12 -31 -12q-45 0 -45 48q0 21 16 34q13 11 30 11q20 0 35 -16q13 -14 13 -29q0 -22 -18 -36zM190 76l-1 -6q-2 -9 -7 -16q-12 -21 -41 -21h-5l-6 1q-9 2 -15 6q-19 11 -19 39q0 21 16 35q13 11 30 11q19 0 33 -14q15 -14 15 -31v-4z" />
    <glyph glyph-name="semicolon" unicode=";" horiz-adv-x="286" 
d="M172 353q-15 -12 -31 -12q-45 0 -45 48q0 21 16 34q13 11 30 11q20 0 35 -16q13 -14 13 -29q0 -22 -18 -36zM84 -71q-9 8 -9 19q0 9 86 155q11 18 29 18q13 0 23 -10q11 -10 11 -23q0 -11 -7 -21q-73 -107 -88 -126t-27 -19q-10 0 -18 7z" />
    <glyph glyph-name="less" unicode="&#x3c;" horiz-adv-x="548" 
d="M102 191q-37 18 -37 51q0 34 37 50q68 31 162 74l82 38l82 38q8 3 14 3q26 0 26 -27q0 -19 -17 -26q-21 -9 -68 -30l-19 -8l-20 -9l-41 -18q-102 -45 -161 -69q-16 -7 -16 -16q0 -8 13 -15q21 -9 66 -28l19 -9l21 -9l42 -18q109 -47 165 -69q17 -7 17 -25q0 -12 -8 -21
t-20 -9q-18 0 -339 152z" />
    <glyph glyph-name="equal" unicode="=" horiz-adv-x="554" 
d="M458 350q31 0 31 -27q0 -11 -8 -18q-9 -9 -24 -9h-32l-30 1h-60q-64 1 -110 1q-47 0 -129 -2h-1q-13 0 -22 9q-7 7 -7 18q0 27 28 27h1q40 -1 177 -1h102q53 0 83 1h1zM458 187q31 0 31 -26q0 -11 -8 -18q-9 -9 -24 -9h-32l-30 1h-60q-64 1 -110 1q-30 0 -66 -1
q-23 0 -63 -1h-1q-29 0 -29 27q0 26 28 26h1q40 -1 177 -1h102q53 0 83 1h1z" />
    <glyph glyph-name="greater" unicode="&#x3e;" horiz-adv-x="548" 
d="M108 39q-29 0 -29 30q0 18 18 25q56 22 165 69l42 18l21 9l19 9q45 19 66 28q13 7 13 15q0 9 -16 16q-59 24 -161 69l-42 18q-15 6 -39 17q-50 22 -68 30q-17 7 -17 26q0 27 26 27q7 0 14 -3l82 -38l82 -38q94 -43 162 -74q37 -16 37 -50q0 -33 -37 -51
q-321 -152 -338 -152z" />
    <glyph glyph-name="question" unicode="?" horiz-adv-x="494" 
d="M146 259q0 61 20 88t87 54q111 44 111 135q0 60 -48 105q-51 47 -123 47q-36 0 -77 -15q-8 -2 -11 -2q-27 0 -27 27q0 24 44 37q17 4 38 7q18 2 35 2q98 0 168 -65q68 -62 68 -144q0 -120 -149 -184q-47 -20 -60 -33q-15 -17 -15 -55v-12l1 -13v-2q0 -16 -10 -26
q-9 -8 -21 -8q-31 0 -31 57zM216 16q-15 -14 -35 -14q-46 0 -46 48q0 22 16 36q14 11 31 11q16 0 31 -13q17 -14 17 -34t-14 -34z" />
    <glyph glyph-name="at" unicode="@" horiz-adv-x="838" 
d="M427 1q-159 0 -261 100q-105 102 -105 267q0 161 106 268q105 107 262 107q160 0 259 -92q94 -88 94 -220q0 -127 -78 -197q-29 -26 -65 -40q-30 -12 -53 -12q-74 0 -88 69q-3 12 -4 12t-9 -8q-56 -50 -130 -50q-58 1 -90 38q-30 35 -30 90q0 82 62 149q63 67 145 67
q58 0 94 -36q8 -8 9 -8q2 0 5 6q11 23 15 28q4 4 15 4q31 0 31 -25q0 -7 -2 -10q-63 -125 -63 -204q0 -69 47 -69q4 0 11 2q8 1 17 5q25 10 45 28q60 53 60 157q0 111 -79 186q-84 80 -218 80q-131 0 -220 -90q-92 -92 -92 -235q0 -140 88 -227q85 -85 218 -85q47 0 98 16
q19 5 37 13q13 5 25 11q6 3 13 3q26 0 26 -28q0 -19 -21 -29q-87 -41 -174 -41zM495 357l2 5q2 6 3 11q5 16 9 29q12 39 12 50q0 1 -1 4t-3 7q-5 9 -13 17q-23 24 -61 24q-64 0 -111 -56q-44 -52 -44 -112q0 -13 3 -25q3 -14 10 -25q19 -29 63 -29q54 0 91 34q27 26 39 63z
" />
    <glyph glyph-name="A" unicode="A" horiz-adv-x="655" 
d="M593 7q-22 0 -31 23q-10 24 -33 88q-26 72 -48 136q-4 12 -16 12q-16 1 -115 1h-104q-53 0 -67 -1q-11 0 -15 -12l-10 -31l-10 -31q-14 -41 -20 -61q-23 -69 -32 -100q-7 -24 -32 -24q-12 0 -21 7q-10 8 -10 20q0 4 2 10q35 112 114 336q13 40 31 89l15 42l14 40
q35 97 47 133q19 53 68 53q52 0 71 -54q29 -81 59 -165q38 -103 69 -188q82 -223 104 -276q3 -7 3 -15q0 -32 -33 -32zM453 336q-10 32 -28 82q-12 34 -33 93q-43 119 -50 141t-20 22t-22 -24q-18 -50 -63 -179q-47 -137 -47 -143t11 -6h51q21 -1 36 -1h78q16 0 35 1h45
q9 0 9 5q0 3 -2 9z" />
    <glyph glyph-name="B" unicode="B" horiz-adv-x="641" 
d="M541 77q-62 -65 -173 -73q-34 -2 -84 -2h-28l-29 2q-33 3 -57 13q-62 24 -65 95q-2 42 -2 197q0 225 3 321q2 73 61 98q23 9 58 12l30 2h30q27 0 55 -2q106 -7 162 -58q47 -45 47 -110q0 -55 -33 -101q-34 -47 -86 -58q-12 -3 -12 -4q4 -1 12 -2q76 -8 123 -65
q43 -54 43 -126q0 -81 -55 -139zM451 649q-43 37 -120 37h-13l-8 1h-39q-58 0 -80 -14q-23 -14 -26 -54q-1 -14 -1 -72v-24l-1 -26v-48q0 -14 13 -17t82 -3h46q23 0 36 1q68 4 110 47q39 39 39 89t-38 83zM325 377h-51q-82 0 -97 -3t-15 -21q0 -207 2 -229q4 -41 33 -55
q26 -13 89 -13q17 0 41 1l20 1l18 1q78 5 124 55q42 45 42 107q0 60 -40 103q-45 47 -121 51q-18 1 -45 2z" />
    <glyph glyph-name="C" unicode="C" horiz-adv-x="753" 
d="M637 59q-95 -59 -212 -59q-166 0 -266 113q-92 103 -92 253q0 151 92 258q102 119 272 119q103 0 183 -49q69 -43 69 -77q0 -33 -33 -33q-17 0 -28 15q-69 87 -196 87q-137 0 -221 -105q-73 -91 -73 -211q0 -122 72 -208q82 -98 219 -98q69 0 129 26q63 28 99 76
q11 16 29 16q15 0 26 -10q11 -11 11 -26q0 -37 -80 -87z" />
    <glyph glyph-name="D" unicode="D" horiz-adv-x="776" 
d="M568 56q-57 -32 -134 -45q-30 -5 -64 -7q-25 -1 -56 -1q-98 0 -145 20q-64 27 -69 100q-5 82 -5 214q0 172 6 282q5 81 69 106q38 15 141 15q21 0 43 -1q19 0 31 -1q161 -10 251 -113q86 -98 86 -252q0 -230 -154 -317zM581 592q-77 85 -210 89h-7l-9 1h-25
q-88 0 -117 -9q-45 -14 -48 -62q-5 -67 -5 -251q0 -169 5 -222q4 -40 27 -56q29 -21 104 -21q33 0 55 1q33 1 60 5q69 9 117 36q128 70 128 270q0 135 -75 219z" />
    <glyph glyph-name="E" unicode="E" horiz-adv-x="561" 
d="M524 18q-10 -9 -27 -10q-13 -1 -131 -1h-82q-39 0 -48 1q-129 10 -134 112q-2 42 -2 193q0 220 3 314q3 102 116 108q38 2 130 2q95 0 125 -2q32 -2 32 -29q0 -28 -34 -28h-38q-12 0 -23 1h-110q-84 0 -105 -8q-29 -10 -33 -53q-1 -14 -1 -70v-25l-1 -24v-48
q0 -19 20 -19q20 -1 122 -1h73q37 0 50 1q20 1 29 -11q3 -5 4 -10l1 -5v-3q0 -12 -9 -21q-9 -10 -25 -10h-2q-21 1 -62 2h-77q-93 0 -109 -2q-16 -3 -16 -18q0 -201 3 -225q6 -59 78 -64q11 -1 49 -1h78q112 0 130 1h3q31 0 31 -27q0 -12 -8 -20z" />
    <glyph glyph-name="F" unicode="F" horiz-adv-x="530" 
d="M99 38q1 39 1 128v83l1 88q0 230 2 288q3 104 117 110q36 2 126 2q39 0 76 -1q35 0 48 -1q30 -1 30 -29t-32 -28h-1q-15 1 -58 1q-44 1 -88 1q-28 0 -54 -1q-24 0 -38 -1q-61 -4 -66 -62q-1 -14 -1 -75v-25l-1 -26v-49q0 -12 13 -14q12 -2 82 -2q111 0 157 2h7
q7 -1 11 -3q15 -7 15 -26q0 -32 -32 -32h-2q-17 1 -57 2h-75q-89 0 -104 -2q-16 -2 -16 -14q0 -29 1 -133v-182q-2 -28 -33 -28q-29 0 -29 28v1z" />
    <glyph glyph-name="G" unicode="G" horiz-adv-x="788" 
d="M462 311q-31 0 -31 32q0 21 18 27q12 4 49 4q69 0 147 -2q93 -1 93 -91q0 -96 -77 -180q-93 -102 -243 -102q-146 0 -246 100q-105 105 -105 267q0 152 93 260q102 119 272 119q97 0 177 -48q72 -42 72 -79q0 -14 -10 -24t-23 -10q-16 0 -28 16q-64 87 -190 87
q-136 0 -221 -100q-78 -92 -78 -221q0 -127 76 -212q81 -89 213 -89q125 0 195 80q27 30 41 67q12 31 12 55q0 31 -21 41q-9 4 -21 5l-11 1h-11q-29 0 -67 -1q-41 -1 -74 -2h-1z" />
    <glyph glyph-name="H" unicode="H" horiz-adv-x="762" 
d="M665 36q0 -29 -32 -29q-33 0 -33 29v1q1 33 1 76v75q0 120 -1 146q0 24 -18 24q-76 2 -201 2q-124 0 -198 -2q-22 0 -22 -20q-2 -54 -2 -161v-68q1 -40 2 -72v-1q0 -30 -32 -30t-32 30v1q3 165 3 374q0 178 -3 293v1q0 31 32 31t32 -31v-1q-2 -84 -2 -125q0 -88 2 -140
q0 -20 18 -22q20 -1 74 -1q58 -1 120 -1q140 0 212 2q15 0 15 21q2 48 2 140q0 42 -2 126v1q0 31 32 31q33 0 33 -31v-1q-2 -170 -2 -339q0 -172 2 -328v-1z" />
    <glyph glyph-name="I" unicode="I" horiz-adv-x="277" 
d="M172 39q0 -31 -34 -31q-13 0 -22 8q-11 8 -11 23v1q3 168 3 357q0 168 -3 307v1q0 33 34 33q13 0 23 -8q10 -9 10 -23v-1q-2 -194 -2 -321q0 -119 2 -345v-1z" />
    <glyph glyph-name="J" unicode="J" horiz-adv-x="423" 
d="M323 707q-1 -60 -2 -145v-155q0 -165 1 -230v-3q0 -83 -53 -129q-50 -43 -131 -43q-46 0 -89 13q-28 7 -28 35q0 32 32 32q8 0 18 -3q40 -14 75 -14q111 0 112 114q1 60 1 208q0 173 -3 318v1q0 32 34 32q33 0 33 -30v-1z" />
    <glyph glyph-name="K" unicode="K" horiz-adv-x="656" 
d="M166 36q0 -29 -34 -29q-13 0 -22 7q-11 9 -11 22v1q3 164 3 369q0 182 -3 299v1q0 31 34 31q13 0 23 -8q10 -9 10 -23v-1q-2 -106 -2 -159q0 -29 1 -67v-45q0 -20 32 -20q33 0 61 28q66 69 140 150q83 92 112 131q10 13 26 13q14 0 24 -10q11 -9 11 -22q0 -22 -270 -298
q-9 -9 -9 -15q0 -5 8 -15q56 -57 161 -158l41 -40q26 -26 40 -39q44 -43 71 -69q10 -10 10 -25t-10 -26q-11 -12 -25 -12q-15 0 -29 15q-45 50 -149 157l-40 41l-40 41q-44 45 -73 77q-7 8 -17 13q-14 6 -34 6h-13l-12 -1q-7 0 -11 -3q-5 -4 -5 -14q-1 -24 -1 -136v-81
q1 -47 2 -85v-1z" />
    <glyph glyph-name="L" unicode="L" horiz-adv-x="570" 
d="M501 13q-13 -1 -135 -1h-85q-40 0 -49 1q-66 5 -97 30q-31 26 -32 78q-1 22 -1 93q0 76 2 249t2 218v22q0 33 33 33q34 0 34 -34v-2q-6 -126 -6 -419q0 -108 2 -146q3 -43 35 -54q29 -9 149 -9q107 0 147 2h3q33 0 33 -30t-35 -31z" />
    <glyph glyph-name="M" unicode="M" horiz-adv-x="902" 
d="M300 338l-13 45l-14 45q-16 51 -26 85q-28 91 -41 130q-7 24 -20 24q-12 0 -15 -25q-6 -67 -18 -284q-11 -214 -15 -323q0 -14 -10 -22q-10 -7 -23 -7q-33 0 -33 28v2q4 103 19 326l3 43l3 43q4 52 6 81q5 89 8 136q2 33 24 53q19 18 47 18q55 0 74 -57q17 -51 43 -135
q10 -33 24 -77l24 -80q62 -208 86 -275q6 -16 15 -16q12 0 38 78q24 70 159 500q20 64 79 64q30 0 50 -20q22 -22 23 -58q2 -87 14 -305q4 -82 10 -175q4 -74 8 -140v-3q0 -30 -32 -30q-33 0 -35 30q-11 147 -26 606q-2 25 -17 25q-14 0 -21 -24q-40 -134 -92 -294
q-64 -201 -98 -290q-17 -44 -61 -44q-41 0 -59 44q-17 47 -88 278z" />
    <glyph glyph-name="N" unicode="N" horiz-adv-x="768" 
d="M674 75q0 -32 -22 -53q-21 -19 -50 -19q-42 0 -67 39q-42 67 -177 308q-20 36 -51 92l-12 22l-12 21q-14 24 -23 41q-49 89 -66 117q-12 20 -23 20q-10 0 -12 -16q-2 -12 -2 -68q0 -113 1 -280q2 -192 4 -263v-1q0 -30 -34 -30t-34 30v1q3 138 3 299q0 188 -3 321v3
q0 38 20 60q18 19 45 19q47 0 76 -47q20 -33 69 -120q15 -27 47 -83l25 -44l26 -45q132 -234 175 -301q10 -16 20 -16q13 0 13 49q0 94 -2 291q-2 217 -4 282v1q0 16 11 26q9 8 22 8q35 0 35 -34v-1q-2 -57 -2 -208q0 -212 4 -420v-1z" />
    <glyph glyph-name="O" unicode="O" horiz-adv-x="858" 
d="M170 101q-104 103 -104 270q0 162 104 268q103 106 259 106t260 -106q103 -106 103 -268q0 -167 -103 -270q-102 -102 -260 -102t-259 102zM640 142q87 89 87 229q0 141 -87 231q-85 87 -211 87t-211 -87q-87 -90 -87 -231q0 -140 87 -229q85 -86 211 -86t211 86z" />
    <glyph glyph-name="P" unicode="P" horiz-adv-x="595" 
d="M101 38q4 112 4 267v130q-1 81 -1 111q0 61 1 83q2 72 63 97q23 9 56 12l29 2h28q22 0 52 -2q100 -7 158 -71q52 -58 52 -139q0 -79 -49 -138q-54 -64 -147 -75q-31 -4 -68 -4q-58 0 -99 10q-8 2 -9 2q-6 0 -6 -15q0 -33 2 -118q1 -85 1 -123v-27q0 -33 -33 -33
q-34 0 -34 30v1zM443 427q37 44 37 103t-38 101q-42 47 -116 51q-9 1 -24 1h-30q-52 0 -72 -10q-31 -13 -34 -55v-30q-1 -48 -1 -156v-32q0 -32 109 -32q34 0 62 3q67 7 107 56z" />
    <glyph glyph-name="Q" unicode="Q" horiz-adv-x="873" 
d="M774 -198q-136 1 -339 156q-41 32 -132 63q-106 38 -168 128q-64 94 -64 223q0 162 104 268q103 105 260 105t260 -105q103 -106 103 -268q0 -145 -81 -245q-81 -98 -216 -122q-16 -4 -16 -8q0 -5 8 -10q158 -118 291 -120q31 0 31 -31q0 -34 -41 -34zM646 143
q87 89 87 229q0 141 -87 231q-85 87 -211 87t-211 -87q-87 -90 -87 -231q0 -140 87 -229q85 -86 211 -86t211 86z" />
    <glyph glyph-name="R" unicode="R" horiz-adv-x="670" 
d="M378 369q0 -6 11 -15q35 -32 75 -96q12 -20 32 -55l15 -26l15 -25q46 -74 102 -80q31 -3 31 -34q0 -33 -41 -33q-11 0 -24 4q-19 5 -36 16q-50 30 -85 94l-8 15l-9 16q-13 23 -21 37q-27 47 -49 80q-63 93 -108 94h-15l-11 1h-11q-31 1 -46 1q-32 0 -32 -19q0 -43 2 -168
q1 -124 1 -138t-10 -22t-23 -8q-31 0 -31 29q1 61 1 158v85l1 85q0 205 2 266q2 72 62 95q23 9 58 12l30 2h30q29 0 59 -2q103 -7 159 -62q50 -48 50 -118q0 -67 -45 -120q-47 -55 -122 -64q-9 0 -9 -5zM454 643q-41 40 -116 44q-12 1 -26 1q-17 1 -33 1q-58 0 -83 -14
q-27 -16 -30 -57q-1 -14 -1 -80v-28l-1 -28v-51q0 -11 18 -14q17 -3 79 -3q23 0 47 1q21 0 37 1q67 5 108 48q38 40 38 93q0 51 -37 86z" />
    <glyph glyph-name="S" unicode="S" horiz-adv-x="536" 
d="M439 62q-64 -63 -172 -63q-106 0 -176 55q-26 20 -42 44q-13 20 -13 32q0 13 10 22t23 9q18 0 27 -16q48 -87 172 -87q71 0 118 40q46 39 46 96q0 83 -94 137q-33 19 -79 42l-81 41q-110 55 -110 163q0 69 50 116q54 51 143 51q84 0 146 -39q53 -34 53 -64q0 -13 -9 -22
q-9 -10 -21 -10q-17 0 -28 17q-45 65 -142 65q-59 0 -96 -34q-35 -32 -35 -78q0 -72 79 -114q15 -8 38 -19l21 -11l21 -10q56 -27 79 -40q130 -71 130 -190q0 -77 -58 -133z" />
    <glyph glyph-name="T" unicode="T" horiz-adv-x="632" 
d="M350 37q0 -32 -35 -32t-35 32v1q4 176 4 421q0 106 -2 200q0 11 -9 14q-12 3 -60 3h-34l-38 -1q-50 -1 -75 -1q-15 0 -25 9q-8 9 -8 20q0 29 32 29h1q50 -1 120 -1q78 -1 152 -1q60 0 125 1q54 0 104 1h1q14 0 23 -9q7 -8 7 -20q0 -29 -29 -29h-1q-74 2 -104 2
q-70 0 -100 -2q-16 0 -16 -15q-2 -96 -2 -184q0 -97 2 -241v-57l1 -27v-25q1 -63 1 -87v-1z" />
    <glyph glyph-name="U" unicode="U" horiz-adv-x="780" 
d="M670 705q-1 -59 -2 -121v-108q0 -113 1 -176q2 -140 -83 -224q-79 -78 -198 -78q-113 0 -191 73q-86 82 -86 221v4q1 66 1 205q0 138 -2 204v1q0 30 33 30q32 0 32 -30v-1q-1 -38 -1 -116l1 -123v-174q0 -111 66 -175q59 -58 146 -58q88 0 150 60q68 66 68 177l1 136v137
q0 91 -1 136v1q0 31 32 31q13 0 23 -8q10 -9 10 -23v-1z" />
    <glyph glyph-name="V" unicode="V" horiz-adv-x="644" 
d="M320 4q-52 0 -73 57q-44 125 -126 384q-79 251 -79 262q0 30 32 30q26 0 33 -25q21 -77 92 -302q58 -189 97 -309q8 -24 23 -24t24 26q23 66 94 293q13 41 28 91q11 35 27 88q35 110 44 140q7 24 31 24q13 0 24 -9t11 -23q0 -8 -87 -276q-88 -268 -125 -374
q-20 -53 -70 -53z" />
    <glyph glyph-name="W" unicode="W" horiz-adv-x="942" 
d="M726 26q-23 -21 -51 -21q-60 0 -80 83q-20 85 -60 287q-40 207 -48 270q-3 25 -18 25q-14 0 -19 -27q-9 -67 -51 -265q-41 -190 -66 -289q-21 -84 -83 -84q-27 0 -49 21q-24 23 -32 61q-8 37 -30 138l-9 41l-9 42l-19 88q-47 217 -61 305v3l-1 3q0 29 34 29q29 0 33 -24
q15 -88 62 -318q7 -36 18 -88l9 -41q5 -25 8 -39q18 -88 24 -120q6 -34 24 -34q19 0 27 35t23 105q16 78 33 159q45 211 62 303q12 64 70 64q25 0 46 -16q21 -18 27 -47q4 -18 10 -53l4 -16l3 -17q4 -22 7 -35q19 -96 32 -162q41 -209 54 -284q6 -35 23 -35q18 0 27 34
q21 80 68 286q50 220 69 319q4 26 32 26q13 0 23 -8t10 -21q0 -3 -1 -7q0 -5 -2 -15q-5 -25 -17 -81q-34 -149 -124 -522q-9 -37 -32 -58z" />
    <glyph glyph-name="X" unicode="X" horiz-adv-x="702" 
d="M661 19q-11 -11 -26 -11t-25 13q-35 46 -113 146l-33 42l-34 43q-41 52 -67 85q-7 9 -12 9t-13 -10l-32 -41l-33 -42q-41 -52 -67 -85q-75 -96 -114 -147q-11 -14 -27 -14q-14 0 -25 10q-11 11 -11 24q0 12 9 22q268 326 268 337q0 7 -86 115q-74 93 -135 165
q-9 12 -9 23q0 13 11 24q10 10 23 10q15 0 25 -14q31 -41 91 -119q21 -26 55 -69l29 -36l28 -36q8 -9 13 -9t12 9q140 178 199 260q10 13 25 13q14 0 25 -10t11 -24q0 -12 -8 -21q-20 -23 -54 -65q-39 -49 -73 -92q-93 -116 -93 -124q0 -4 6 -13q51 -64 140 -172l17 -21
l17 -20l32 -40q36 -42 57 -69q8 -9 8 -21q0 -15 -11 -25z" />
    <glyph glyph-name="Y" unicode="Y" horiz-adv-x="679" 
d="M307 294q0 16 -14 38l-232 352q-7 11 -7 22q0 13 10 22t23 9q20 0 31 -19q29 -51 94 -151q43 -67 115 -175q8 -11 14 -11q14 0 114 160q33 54 70 115q13 23 24 41q10 16 12 21q9 17 27 17q14 0 25 -10q12 -10 12 -25q0 -9 -6 -18q-37 -59 -108 -167q-76 -115 -123 -182
q-13 -18 -13 -40q0 -28 1 -117v-134q0 -35 -34 -35q-35 0 -35 35v252z" />
    <glyph glyph-name="Z" unicode="Z" horiz-adv-x="624" 
d="M106 670q-30 0 -30 30q0 32 30 32h1q72 -2 136 -2q56 0 121 1q55 0 105 1h2q35 0 56 -17q20 -18 20 -45q0 -30 -26 -60q-54 -62 -203 -252l-29 -37l-28 -36q-35 -45 -54 -68q-57 -73 -82 -104q-11 -14 -11 -24q0 -13 14 -16q10 -2 52 -2q78 0 192 1q130 2 175 4h2
q33 0 33 -30q0 -13 -9 -22q-10 -11 -28 -11h-83q-317 0 -342 -1h-2q-33 0 -53 18q-20 17 -20 45q0 33 26 65q72 89 205 259q140 178 183 237q11 14 11 25q0 9 -12 12q-5 1 -12 2h-12q-32 0 -153 -2l-48 -1l-47 -1q-51 -1 -79 -1h-1z" />
    <glyph glyph-name="bracketleft" unicode="[" horiz-adv-x="463" 
d="M363 -19h4q26 0 26 -28q0 -12 -7 -20q-8 -9 -21 -9q-28 -1 -73 -1h-32q-52 2 -84 37t-33 93q-2 188 -2 264q0 166 3 361q1 58 31 93q31 36 84 38q11 1 22 1h17q62 0 77 -4q19 -5 19 -26q0 -11 -7 -20q-9 -9 -22 -9h-2q-60 3 -94 3q-67 -2 -70 -80q-4 -103 -4 -239
q0 -113 4 -377q1 -78 69 -80q77 0 95 3z" />
    <glyph glyph-name="backslash" unicode="\" horiz-adv-x="416" 
d="M345 -31q-21 0 -28 21q-19 52 -62 170q-16 45 -40 111l-21 58l-21 58q-109 298 -127 350l-1 4v4q0 11 9 19q9 7 20 7q19 0 25 -19q21 -74 114 -330q95 -261 156 -414q3 -7 3 -14q0 -25 -27 -25z" />
    <glyph glyph-name="bracketright" unicode="]" horiz-adv-x="463" 
d="M264 58q4 264 4 377q0 136 -4 239q-3 78 -70 80q-34 0 -94 -3h-2q-30 0 -30 30q0 20 20 25q15 4 77 4h17q11 0 22 -1q53 -2 84 -38q30 -35 31 -93q3 -195 3 -361q0 -76 -2 -264q-1 -58 -33 -93t-84 -37h-32q-46 0 -74 1q-13 0 -21 9q-7 8 -7 20q0 28 26 28h4q18 -3 96 -3
q68 2 69 80z" />
    <glyph glyph-name="asciicircum" unicode="^" horiz-adv-x="500" 
d="M354 566q-13 0 -22 11q-8 10 -29 39l-17 24q-10 13 -16 22q-10 15 -20 15q-8 0 -20 -15q-6 -8 -16 -21l-16 -23q-20 -27 -31 -41q-9 -10 -20 -10q-25 0 -25 22q0 5 3 11q9 19 38 66l12 20l12 19q14 23 22 36q15 25 41 25q25 0 41 -25q8 -13 21 -36l12 -19l12 -19
q29 -47 38 -67q3 -7 3 -13q0 -21 -23 -21z" />
    <glyph glyph-name="underscore" unicode="_" horiz-adv-x="500" 
d="M0 -171q-28 0 -28 28t28 28q19 0 108 1h289q87 -1 103 -1q29 0 29 -28t-29 -28h-500z" />
    <glyph glyph-name="underscore" unicode="&#x332;" horiz-adv-x="500" 
d="M0 -171q-28 0 -28 28t28 28q19 0 108 1h289q87 -1 103 -1q29 0 29 -28t-29 -28h-500z" />
    <glyph glyph-name="grave" unicode="`" horiz-adv-x="500" 
d="M270 576q-51 61 -99 131q-7 11 -7 23q0 15 11 26q11 10 26 10q20 0 31 -20q9 -16 21 -35q15 -27 27 -48q33 -61 33 -71q0 -26 -24 -26q-10 0 -19 10z" />
    <glyph glyph-name="grave" unicode="&#x300;" horiz-adv-x="500" 
d="M270 576q-51 61 -99 131q-7 11 -7 23q0 15 11 26q11 10 26 10q20 0 31 -20q9 -16 21 -35q15 -27 27 -48q33 -61 33 -71q0 -26 -24 -26q-10 0 -19 10z" />
    <glyph glyph-name="a" unicode="a" horiz-adv-x="517" 
d="M377 81q-22 -37 -67 -60q-44 -22 -91 -22q-72 0 -119 43q-43 40 -43 95q0 91 107 124q41 13 100 25q23 5 47 9q19 4 38 7q16 3 16 12l1 8v8q0 98 -104 98q-73 0 -117 -48q-9 -10 -21 -10q-28 0 -28 27q0 29 53 55q54 26 117 26q156 0 156 -153q0 -18 -1 -28
q-5 -55 -5 -111q0 -59 13 -85q11 -22 43 -39q11 -5 11 -20q0 -11 -8 -21q-9 -10 -22 -10q-1 0 -4 1q-4 1 -7 2q-11 4 -21 11q-29 20 -38 55q-1 4 -3 4q-2 -1 -3 -3zM325 97q38 43 38 109l1 17v17q0 11 -10 11h-3q-132 -21 -179 -41q-61 -25 -61 -74q0 -33 28 -58
q31 -26 79 -26q67 0 107 45z" />
    <glyph glyph-name="b" unicode="b" horiz-adv-x="612" 
d="M162 708q-3 -114 -3 -304q0 -11 2 -11q4 0 9 8q57 77 162 77q98 0 162 -66q65 -68 65 -172q0 -107 -65 -173q-63 -65 -162 -65q-98 0 -158 72q-9 12 -11 12t-2 -41q0 -25 -14 -35q-5 -3 -10 -4l-4 -1h-2q-29 0 -29 34q0 44 1 220t1 265q0 150 -2 182q-1 20 11 28
q5 3 10 5q5 1 9 1q30 0 30 -31v-1zM450 106q49 51 49 134t-49 136q-48 51 -120 51t-121 -51q-49 -53 -49 -136q0 -82 49 -134q48 -50 121 -50t120 50z" />
    <glyph glyph-name="c" unicode="c" horiz-adv-x="511" 
d="M423 37q-59 -37 -132 -37q-110 0 -175 73q-60 67 -60 163q0 102 64 172q66 73 166 73q69 0 121 -31q46 -28 46 -54q0 -30 -29 -30q-15 0 -26 14q-39 49 -112 49t-122 -54t-49 -134q0 -75 45 -128q49 -58 130 -58q86 0 126 57q11 15 26 15q13 0 22 -9q10 -9 10 -22
q0 -27 -51 -59z" />
    <glyph glyph-name="d" unicode="d" horiz-adv-x="609" 
d="M540 19q-10 -9 -22 -9q-18 0 -27 16q-4 8 -11 28q-8 22 -10 35q-3 15 -5 15q-1 0 -2 -3l-2 -2l-3 -4q-63 -94 -175 -94q-99 0 -163 65q-65 67 -65 174q0 104 65 171q65 66 163 66q100 0 158 -74q9 -12 11 -12t2 19q0 212 -2 298q-1 18 11 26q4 3 10 5q4 1 9 1
q31 0 31 -31v-2q-3 -64 -3 -264q0 -238 4 -287q5 -51 31 -99q4 -8 4 -17q0 -12 -9 -21zM405 106q49 52 49 134q0 83 -49 135q-47 50 -120 50q-77 0 -123 -49q-47 -51 -47 -136q0 -84 48 -135q46 -49 122 -49q72 0 120 50z" />
    <glyph glyph-name="e" unicode="e" horiz-adv-x="529" 
d="M466 73q-14 -18 -38 -33q-62 -41 -145 -41q-97 0 -161 65q-65 67 -65 171q0 106 67 176q65 66 156 66q92 0 150 -61q47 -49 47 -103q0 -66 -73 -67q-23 -1 -94 -1q-44 0 -111 1h-71q-12 0 -12 -18q0 -80 48 -129q47 -47 120 -47q87 0 145 66q9 9 20 9q12 0 21 -8
q9 -9 9 -21q0 -9 -13 -25zM411 351q-8 19 -23 35q-40 41 -107 41q-65 0 -114 -48q-43 -40 -43 -75q0 -7 19 -9q17 -1 106 -1h77q40 0 59 1q33 1 33 28q0 12 -7 28z" />
    <glyph glyph-name="f" unicode="f" horiz-adv-x="358" 
d="M135 39q1 29 1 132q0 107 -1 229q0 13 -13 13h-64q-26 0 -26 27q0 28 26 28h64q14 0 14 11v26q-1 24 -1 43v26q2 77 52 124q46 43 109 43h5l6 -1q9 -1 15 -3q19 -7 19 -24q0 -27 -30 -27h-12q-47 0 -76 -35q-28 -32 -30 -83v-31q0 -46 1 -59q0 -10 12 -10h104q12 0 19 -9
q7 -7 7 -18q0 -28 -26 -28h-105q-11 0 -11 -13q2 -278 2 -361q0 -32 -31 -32q-30 0 -30 31v1z" />
    <glyph glyph-name="g" unicode="g" horiz-adv-x="550" 
d="M259 475q71 0 124 -30q7 -4 13 -4q7 0 12 4q39 27 77 27q27 0 38 -10q8 -7 8 -20q0 -11 -7 -18q-7 -9 -19 -9l-3 1h-4l-8 1h-8q-23 0 -38 -10q-14 -9 -14 -19q0 -1 2 -7q7 -15 10 -34q2 -14 2 -30q0 -67 -47 -108q-49 -42 -135 -45q-51 -2 -88 -23q-39 -22 -39 -51
q0 -35 96 -35q131 0 162 -5q59 -9 96 -42q38 -35 38 -88q0 -77 -68 -126q-69 -51 -183 -51q-90 0 -154 37q-73 41 -73 112q0 82 94 118l11 5l-4 1l-5 1l-6 2q-59 18 -59 67q0 9 2 18q3 12 9 23q18 29 59 50q10 6 10 8q0 1 -13 8q-71 41 -71 123q0 74 55 118q51 41 126 41h2z
M407 -5q-23 7 -57 9l-29 2h-28q-32 0 -45 -1q-56 -3 -98 -32q-46 -33 -46 -78q0 -40 39 -67q45 -32 126 -32q83 0 139 31q60 34 60 91t-61 77zM331 414q-20 9 -44 13q-9 1 -17 2h-10q-53 0 -89 -28q-39 -31 -39 -82q0 -69 59 -95q19 -9 43 -12q7 -1 15 -2h17q9 1 17 2
q25 4 45 14q61 28 61 94t-58 94z" />
    <glyph glyph-name="h" unicode="h" horiz-adv-x="556" 
d="M418 33q2 84 2 183q0 60 -2 92q-4 59 -38 90q-30 27 -77 27q-55 0 -99 -36q-47 -38 -49 -94q-2 -62 -2 -161v-49q0 -29 1 -53v-1q0 -27 -29 -27q-12 0 -21 7q-10 8 -10 21v1q3 117 3 418q0 213 -1 259v1q0 25 30 25t30 -28v-153q-1 -133 -1 -142q0 -5 2 -5l4 4
q53 68 148 68q67 0 113 -40q51 -44 54 -121q2 -64 2 -175q0 -83 -1 -110q0 -14 -9 -22q-8 -8 -20 -8q-30 0 -30 28v1z" />
    <glyph glyph-name="i" unicode="i" horiz-adv-x="267" 
d="M166 661q-14 -13 -34 -13q-30 0 -41 22q-4 8 -5 17l-1 6v4q0 21 17 35q14 11 31 11q7 0 14 -2q9 -2 16 -7q19 -12 19 -37q0 -22 -16 -36zM165 35q0 -30 -32 -30q-12 0 -21 8q-10 8 -10 22q0 42 1 145v150q0 88 -1 116v1q0 28 32 28q12 0 21 -7q10 -7 10 -20v-1
q-2 -84 -2 -210q0 -89 2 -201v-1z" />
    <glyph glyph-name="j" unicode="j" horiz-adv-x="272" 
d="M176 443q-1 -34 -1 -132q0 -100 1 -204q0 -11 1 -43v-85q-2 -116 -83 -177q-28 -22 -61 -33q-12 -5 -24 -7q-9 -2 -15 -2q-29 0 -29 27q0 21 23 26q55 9 91 57q37 48 39 118q1 11 1 23v18q0 16 -1 40t-1 42q-2 157 -2 276v55q0 31 30 31q12 0 21 -8q10 -8 10 -21v-1z
M176 661q-14 -13 -34 -13q-30 0 -41 22q-4 8 -5 17l-1 6v4q0 21 17 35q14 11 31 11q7 0 14 -2q9 -2 16 -7q19 -12 19 -37q0 -22 -16 -36z" />
    <glyph glyph-name="k" unicode="k" horiz-adv-x="516" 
d="M96 33q4 172 4 485q0 148 -1 194q0 27 30 27t30 -27v-1q-1 -46 -2 -137v-257q0 -15 15 -15q10 0 20 7q120 82 218 157q10 7 19 7q13 0 22 -10t9 -23q0 -14 -11 -21q-57 -39 -104 -71q-63 -42 -100 -66q-9 -6 -9 -10q0 -3 8 -11q29 -28 117 -105l16 -15l16 -14
q19 -16 30 -26q30 -27 41 -37q12 -11 12 -26q0 -13 -10 -22q-9 -10 -22 -10t-22 9q-5 4 -17 16l-5 5l-6 6q-8 7 -14 13q-36 36 -64 63q-89 86 -118 116q-11 12 -28 12q-12 0 -14 -15q-2 -14 -2 -88v-46q0 -31 1 -62q0 -28 -30 -28q-29 0 -29 25v1z" />
    <glyph glyph-name="l" unicode="l" horiz-adv-x="260" 
d="M161 40q0 -31 -31 -31t-31 31v1q1 48 2 153v202q0 269 -2 310v1q0 32 32 32q30 0 30 -30v-1q-2 -92 -2 -346q0 -179 2 -321v-1z" />
    <glyph glyph-name="m" unicode="m" horiz-adv-x="819" 
d="M675 33q1 26 1 81v98q0 88 -1 105q-3 54 -33 82q-26 25 -66 25q-50 0 -91 -33q-44 -35 -46 -84q-1 -17 -1 -86q0 -84 2 -188v-1q0 -28 -30 -28q-28 0 -28 28v1q1 26 1 81v98q0 88 -1 105q-3 55 -33 84q-26 26 -66 26q-50 0 -90 -35q-43 -37 -45 -90q-1 -17 -1 -88
q0 -91 2 -181v-1q0 -30 -28 -30q-30 0 -30 31v1q3 119 3 277q0 96 -1 133v1q0 27 29 27q28 0 28 -28v-27q0 -6 1 -6q2 0 3 3q49 63 137 63q46 0 81 -21q39 -24 53 -67q57 88 156 88q61 0 103 -38q46 -42 48 -112q1 -31 1 -110q1 -78 1 -137v-45q0 -15 -9 -25q-8 -8 -20 -8
q-30 0 -30 30v1z" />
    <glyph glyph-name="n" unicode="n" horiz-adv-x="556" 
d="M418 32q2 84 2 183q0 60 -2 92q-4 57 -37 88q-30 27 -75 27q-56 0 -101 -37q-49 -40 -50 -97q-2 -62 -2 -155v-49q0 -28 1 -52v-1q0 -27 -29 -27q-12 0 -21 7q-10 8 -10 21v1q4 162 4 259q0 64 -2 152v1q0 26 32 26q28 0 28 -27v-38q0 -3 1 -4l2 1l2 2q54 72 148 72
q67 0 113 -40q51 -44 54 -120q2 -64 2 -175q0 -83 -1 -110q0 -29 -29 -29q-30 0 -30 28v1z" />
    <glyph glyph-name="o" unicode="o" horiz-adv-x="572" 
d="M120 65q-66 67 -66 174q0 104 66 172q65 67 165 67t166 -67q67 -68 67 -172q0 -107 -67 -174q-65 -66 -166 -66t-165 66zM408 104q51 53 51 135q0 83 -51 136q-49 51 -123 51t-122 -51q-51 -53 -51 -136q0 -82 51 -135q49 -51 122 -51q74 0 123 51z" />
    <glyph glyph-name="p" unicode="p" horiz-adv-x="610" 
d="M100 -220q2 154 2 378q0 178 -2 278v1q0 32 29 32q12 0 21 -7q10 -9 10 -23v-20q-1 -14 -1 -18q0 -10 2 -10t8 8q57 77 161 77q98 0 162 -67q65 -67 65 -172q0 -106 -65 -172q-63 -65 -162 -65q-98 0 -158 73q-10 12 -11 12q-2 0 -2 -16q0 -7 1 -113v-147q0 -36 -4 -47
q-5 -17 -26 -17q-30 0 -30 34v1zM449 103q49 52 49 134q0 83 -49 135q-48 51 -121 51t-121 -51q-49 -52 -49 -135q0 -82 49 -134q48 -50 121 -50t121 50z" />
    <glyph glyph-name="q" unicode="q" horiz-adv-x="608" 
d="M514 -220q0 -31 -30 -31t-30 30v1q2 64 3 166q2 105 2 137q0 5 1 10v5h-1q-1 -4 -5 -9q-62 -90 -171 -90q-99 0 -163 65q-65 67 -65 173q0 105 65 172q65 66 163 66q101 0 157 -73q8 -11 10 -11q3 0 3 16v18q-1 15 -1 18q0 30 30 30t30 -31v-1q-1 -34 -1 -88
q0 -283 1 -434q1 -57 1 -94q0 -15 1 -27v-18zM405 103q49 52 49 134q0 83 -49 135q-47 50 -120 50q-76 0 -123 -50t-47 -135q0 -84 48 -135q46 -49 122 -49q72 0 120 50z" />
    <glyph glyph-name="r" unicode="r" horiz-adv-x="367" 
d="M154 31q0 -27 -29 -27q-32 0 -32 28v1q4 162 4 261q0 65 -2 153v1q0 11 10 19q9 7 21 7q30 0 30 -28v-18q-1 -11 -1 -18q0 -3 1 -5q2 0 4 4q28 39 85 56q19 6 39 9q8 1 14 2h8q31 0 31 -27q0 -11 -8 -20q-9 -9 -23 -9q-57 0 -102 -32q-49 -35 -50 -90q-1 -26 -1 -129v-65
q0 -40 1 -72v-1z" />
    <glyph glyph-name="s" unicode="s" horiz-adv-x="428" 
d="M336 41q-45 -43 -122 -43q-70 0 -120 34q-42 28 -42 54q0 29 30 29q15 0 25 -13q35 -50 107 -50q43 0 71 21q29 22 29 54q0 37 -36 63q-26 18 -123 62q-81 35 -81 111q0 47 35 80q38 35 101 35q59 0 101 -25q38 -22 38 -45q0 -29 -29 -29q-15 0 -26 14q-29 35 -84 35
q-37 0 -59 -19q-21 -18 -21 -44q0 -41 49 -65q9 -4 24 -11l13 -6l14 -6q36 -16 54 -25q89 -46 89 -125q0 -49 -37 -86z" />
    <glyph glyph-name="t" unicode="t" horiz-adv-x="351" 
d="M195 415q-12 0 -14 -3q-2 -2 -2 -12q0 -14 -1 -94q-2 -79 -2 -121q0 -71 11 -95q16 -36 69 -36q8 0 28 2h4q24 0 24 -26q0 -31 -64 -31q-83 0 -112 60q-10 21 -14 51q-1 10 -2 23v19q0 34 1 123t1 112v16q0 12 -10 12h-59q-28 0 -28 26t28 26h58q11 0 11 10v20l1 12v80
q0 13 9 22q9 7 20 7q29 0 29 -31q0 -29 -2 -109q0 -11 15 -11h89q28 0 28 -26t-28 -26h-88z" />
    <glyph glyph-name="u" unicode="u" horiz-adv-x="554" 
d="M471 444q-3 -115 -3 -243q0 -104 30 -147q7 -10 7 -20q0 -28 -31 -28q-21 0 -36 29q-5 10 -9 23q-3 10 -4 18q-1 5 -2 5q-2 0 -3 -2q-52 -80 -161 -80q-68 0 -113 39q-51 43 -53 121q0 15 -1 37q0 25 -1 51q-1 67 -1 117q0 60 1 81q0 29 29 29q30 0 30 -28v-1
q-2 -84 -2 -186q0 -61 2 -93q4 -58 37 -89q30 -27 76 -27q56 0 100 37q47 39 48 98q2 68 2 102q0 52 -2 158v1q0 27 29 27q12 0 21 -7q10 -8 10 -21v-1z" />
    <glyph glyph-name="v" unicode="v" horiz-adv-x="476" 
d="M237 5q-34 0 -51 41q-151 387 -151 398q0 28 28 28q24 0 31 -23q6 -17 61 -166q27 -73 41 -110q20 -56 28 -79q6 -19 13 -19t14 17q22 59 66 178q49 135 64 180q7 20 27 20q13 0 23 -8t10 -20q0 -14 -58 -165q-54 -140 -93 -231q-17 -41 -53 -41z" />
    <glyph glyph-name="w" unicode="w" horiz-adv-x="706" 
d="M296 223q-11 -44 -24 -92q-9 -37 -18 -69q-16 -58 -63 -58q-46 0 -60 57q-7 30 -21 86q-6 20 -13 51l-14 54q-36 140 -47 188q-1 2 -1 7q0 25 30 25q23 0 29 -22q18 -75 44 -187q32 -133 43 -186q4 -18 12 -18q9 0 13 18q4 17 9 33q5 21 11 41q13 54 25 99q32 127 42 175
q9 47 55 47q47 0 56 -44q7 -35 42 -171l13 -53q7 -30 12 -50q13 -53 19 -78q5 -18 11 -18q7 0 12 16q9 31 23 81q15 54 29 107q36 137 47 188q4 23 28 23q12 0 21 -7q10 -8 10 -20q0 -16 -38 -151q-38 -132 -72 -237q-17 -53 -62 -53q-42 0 -57 55q-2 7 -7 26l-2 8l-2 9
l-5 20q-14 55 -25 96q-33 131 -42 182q-3 16 -10 16q-6 0 -11 -17q-12 -58 -42 -177z" />
    <glyph glyph-name="x" unicode="x" horiz-adv-x="480" 
d="M439 19q-10 -9 -22 -9q-14 0 -22 11q-1 2 -8 10q-8 10 -18 23q-27 34 -51 65q-74 92 -77 92t-76 -90q-25 -31 -52 -65q-23 -29 -28 -35q-8 -11 -22 -11q-12 0 -22 9q-10 8 -10 20q0 10 7 18q12 14 34 39l9 12l10 11l21 25q55 64 86 101q5 7 5 9q0 6 -69 87q-12 14 -26 30
q-9 11 -22 26q-23 26 -23 27q-7 8 -7 17q0 12 10 21t22 9q11 0 20 -10l6 -8q5 -7 14 -18q22 -30 43 -57q63 -81 69 -81q5 0 68 81q20 27 42 56q9 11 14 18l6 8q8 11 20 11t23 -9q10 -10 10 -22q0 -10 -7 -17q-11 -13 -32 -38q-25 -29 -46 -55q-59 -72 -59 -77q0 -4 4 -8
q17 -21 42 -49l21 -25l22 -25q53 -63 74 -88q7 -8 7 -18q0 -12 -10 -21z" />
    <glyph glyph-name="y" unicode="y" horiz-adv-x="493" 
d="M170 -200q-51 -53 -129 -53q-32 0 -32 30q0 12 8 20q10 9 26 9q57 0 95 43q31 35 74 135q3 8 3 13q0 7 -5 19q-10 24 -36 87l-12 29l-13 31q-16 39 -26 63q-67 163 -82 203q-2 5 -2 13q0 28 30 28q21 0 28 -20q23 -62 69 -179q52 -133 72 -178q6 -14 10 -14q11 0 80 183
q22 58 47 126q8 23 15 42q6 16 6 17q7 22 30 22q33 0 33 -29q0 -5 -3 -13q-29 -71 -96 -230l-28 -66l-27 -64q-31 -75 -50 -120q-43 -103 -85 -147z" />
    <glyph glyph-name="z" unicode="z" horiz-adv-x="452" 
d="M83 416q-12 0 -19 8q-6 7 -6 17q0 26 25 26h1q25 -1 105 -1h84q45 0 69 1h2q52 0 52 -44q0 -26 -23 -50q-24 -26 -65 -69q-15 -17 -36 -40l-38 -41q-96 -105 -126 -136q-7 -7 -7 -14q0 -11 20 -11q59 0 140 1q99 1 125 2h2q30 0 30 -26q0 -11 -8 -18q-9 -9 -24 -9h-299
q-23 0 -38 12q-15 13 -15 32q0 24 23 50l48 52l16 18l18 20q23 24 38 41q102 111 138 154q10 11 10 18q0 9 -17 9q-15 0 -48 -1h-65q-90 0 -111 -1h-1z" />
    <glyph glyph-name="braceleft" unicode="{" horiz-adv-x="377" 
d="M275 -79q-79 11 -112 55q-28 37 -28 112q0 42 11 134q2 18 2 26q0 80 -54 87q-27 5 -27 33q0 11 7 20t20 10q55 4 55 75q0 10 -2 30q-10 73 -10 121q0 86 30 131q33 50 110 57h4q29 0 29 -29q0 -25 -27 -27q-92 -6 -92 -136q0 -47 9 -110q3 -18 3 -36q0 -80 -55 -105
q-7 -3 -7 -5t6 -5q56 -27 56 -110q0 -9 -2 -31q-1 -9 -4 -27l-3 -30q-5 -37 -5 -63q0 -117 96 -123q24 -1 24 -25q0 -11 -7 -20q-9 -9 -22 -9h-5z" />
    <glyph glyph-name="bar" unicode="|" horiz-adv-x="320" 
d="M132 -20q1 43 2 163v240q0 330 -2 373v1q0 12 9 19q8 6 20 6q27 0 27 -23v-1q-1 -33 -1 -286v-283q0 -152 1 -208q0 -13 -9 -21q-8 -7 -20 -7q-27 0 -27 26v1z" />
    <glyph glyph-name="bar" unicode="&#x1c0;" horiz-adv-x="320" 
d="M132 -20q1 43 2 163v240q0 330 -2 373v1q0 12 9 19q8 6 20 6q27 0 27 -23v-1q-1 -33 -1 -286v-283q0 -152 1 -208q0 -13 -9 -21q-8 -7 -20 -7q-27 0 -27 26v1z" />
    <glyph glyph-name="braceright" unicode="}" horiz-adv-x="377" 
d="M97 -79q-13 0 -22 9q-7 9 -7 20q0 24 24 25q96 6 96 123q0 26 -4 63l-4 30q-3 18 -4 27q-2 22 -2 32q0 82 55 109q6 3 6 5t-6 5q-55 25 -55 105q0 18 3 36q9 63 9 110q0 130 -92 136q-27 2 -27 28q0 28 28 28h4q141 -13 141 -189q0 -47 -10 -120q-2 -20 -2 -30
q0 -71 55 -75q13 -1 20 -10t7 -20q0 -28 -27 -33q-54 -7 -54 -87q0 -8 2 -26q11 -92 11 -134q0 -75 -28 -112q-33 -44 -112 -55h-5z" />
    <glyph glyph-name="asciitilde" unicode="~" horiz-adv-x="631" 
d="M515 212q-51 -31 -100 -31q-47 0 -89 24q-71 40 -106 40q-42 0 -106 -51q-11 -8 -20 -8q-28 0 -28 27q0 24 53 55q54 33 103 33q42 0 121 -40q48 -23 78 -23q42 0 95 45q9 8 21 8q27 0 27 -27q0 -23 -49 -52z" />
    <glyph glyph-name="asciitilde" unicode="&#x223c;" horiz-adv-x="631" 
d="M515 212q-51 -31 -100 -31q-47 0 -89 24q-71 40 -106 40q-42 0 -106 -51q-11 -8 -20 -8q-28 0 -28 27q0 24 53 55q54 33 103 33q42 0 121 -40q48 -23 78 -23q42 0 95 45q9 8 21 8q27 0 27 -27q0 -23 -49 -52z" />
    <glyph glyph-name="uni2ED1" unicode="&#x2ed1;" 
d="M515 323q27 -85 80 -150q88 35 179 102q6 5 15 5q11 0 19 -8t8 -19q0 -14 -15 -24q-99 -61 -175 -90q107 -108 274 -134q23 -3 23 -25q0 -30 -32 -30h-6q-5 1 -11 2q-18 3 -39 9q-62 17 -120 50q-180 101 -250 312h-143v-279q88 25 150 52q6 2 10 2q26 0 26 -26
q0 -15 -18 -23q-71 -31 -206 -67q-126 -35 -153 -35q-29 0 -29 26q0 23 25 28q65 10 140 28v294h-163q-23 0 -23 22q0 9 6 16t17 7h162q-1 27 -1 88q0 85 2 201q1 107 122 109q47 1 109 1h113q109 0 161 -1q24 0 24 -23q0 -9 -6 -16q-7 -7 -18 -7q-41 1 -95 1h-98
q-129 0 -185 -1q-70 -1 -72 -70l-1 -14h420q21 0 21 -22t-21 -22h-421q-1 -28 -1 -86h422q21 0 21 -22t-21 -22h-422q0 -65 1 -94h577q22 0 22 -22q0 -23 -22 -23h-382z" />
    <glyph glyph-name="uni2ED1" unicode="&#x9577;" 
d="M515 323q27 -85 80 -150q88 35 179 102q6 5 15 5q11 0 19 -8t8 -19q0 -14 -15 -24q-99 -61 -175 -90q107 -108 274 -134q23 -3 23 -25q0 -30 -32 -30h-6q-5 1 -11 2q-18 3 -39 9q-62 17 -120 50q-180 101 -250 312h-143v-279q88 25 150 52q6 2 10 2q26 0 26 -26
q0 -15 -18 -23q-71 -31 -206 -67q-126 -35 -153 -35q-29 0 -29 26q0 23 25 28q65 10 140 28v294h-163q-23 0 -23 22q0 9 6 16t17 7h162q-1 27 -1 88q0 85 2 201q1 107 122 109q47 1 109 1h113q109 0 161 -1q24 0 24 -23q0 -9 -6 -16q-7 -7 -18 -7q-41 1 -95 1h-98
q-129 0 -185 -1q-70 -1 -72 -70l-1 -14h420q21 0 21 -22t-21 -22h-421q-1 -28 -1 -86h422q21 0 21 -22t-21 -22h-422q0 -65 1 -94h577q22 0 22 -22q0 -23 -22 -23h-382z" />
    <glyph glyph-name="uni2ED1" unicode="&#x2fa7;" 
d="M515 323q27 -85 80 -150q88 35 179 102q6 5 15 5q11 0 19 -8t8 -19q0 -14 -15 -24q-99 -61 -175 -90q107 -108 274 -134q23 -3 23 -25q0 -30 -32 -30h-6q-5 1 -11 2q-18 3 -39 9q-62 17 -120 50q-180 101 -250 312h-143v-279q88 25 150 52q6 2 10 2q26 0 26 -26
q0 -15 -18 -23q-71 -31 -206 -67q-126 -35 -153 -35q-29 0 -29 26q0 23 25 28q65 10 140 28v294h-163q-23 0 -23 22q0 9 6 16t17 7h162q-1 27 -1 88q0 85 2 201q1 107 122 109q47 1 109 1h113q109 0 161 -1q24 0 24 -23q0 -9 -6 -16q-7 -7 -18 -7q-41 1 -95 1h-98
q-129 0 -185 -1q-70 -1 -72 -70l-1 -14h420q21 0 21 -22t-21 -22h-421q-1 -28 -1 -86h422q21 0 21 -22t-21 -22h-422q0 -65 1 -94h577q22 0 22 -22q0 -23 -22 -23h-382z" />
    <glyph glyph-name="uni2F5A" unicode="&#x2f5a;" 
d="M273 511v-68q0 -57 -1 -84q34 1 93 1h168q48 -1 77 -26q31 -28 32 -75q1 -34 1 -96v-195q0 -28 -28 -28q-29 0 -29 28q1 28 1 70v78q0 102 -1 135q-2 58 -67 60q-29 1 -122 1h-68q-37 0 -60 -1q-22 -229 -144 -338q-11 -10 -24 -10t-22 9q-10 8 -10 19t10 20
q81 74 113 177q27 88 27 234q0 147 -2 247q0 36 -1 61q-1 21 -1 27v1q0 27 29 27q30 0 30 -29v-87q-1 -68 -1 -109l259 -1l-1 208q0 28 28 28t28 -28l-1 -208l281 1q25 0 25 -24q0 -25 -25 -25h-594z" />
    <glyph glyph-name="uni2F5A" unicode="&#x7247;" 
d="M273 511v-68q0 -57 -1 -84q34 1 93 1h168q48 -1 77 -26q31 -28 32 -75q1 -34 1 -96v-195q0 -28 -28 -28q-29 0 -29 28q1 28 1 70v78q0 102 -1 135q-2 58 -67 60q-29 1 -122 1h-68q-37 0 -60 -1q-22 -229 -144 -338q-11 -10 -24 -10t-22 9q-10 8 -10 19t10 20
q81 74 113 177q27 88 27 234q0 147 -2 247q0 36 -1 61q-1 21 -1 27v1q0 27 29 27q30 0 30 -29v-87q-1 -68 -1 -109l259 -1l-1 208q0 28 28 28t28 -28l-1 -208l281 1q25 0 25 -24q0 -25 -25 -25h-594z" />
    <glyph glyph-name="uni2FB3" unicode="&#x2fb3;" 
d="M179 653q-24 0 -24 24q0 9 6 16q7 7 18 7h294l-2 92q0 24 29 24q28 0 28 -24l-1 -92h292q11 0 18 -7q6 -7 6 -16q0 -24 -24 -24h-640zM113 417q-24 0 -24 24q0 9 6 16q7 7 18 7l268 -1l-1 3q-32 64 -83 120q-5 7 -5 11q0 23 26 23q22 0 69 -62q44 -60 44 -77q0 -9 -7 -18
h139q43 69 69 143q7 19 25 19q12 0 21 -8t9 -19q0 -15 -33 -73q-11 -20 -24 -41q-5 -8 -9 -14q-3 -6 -4 -7l269 1q11 0 18 -7q6 -7 6 -16q0 -24 -24 -24h-773zM729 -13q-28 -27 -73 -28l-39 -1h-38q-41 -1 -71 -1q-76 0 -159 3q-97 3 -102 90q-2 62 -2 93t2 95q2 36 26 59
q27 26 74 27q41 1 116 1q39 0 92 -1h51l27 -1h28q41 -1 69 -24q26 -23 28 -55q1 -21 2 -48v-49q0 -64 -2 -97q-2 -38 -29 -63zM708 167q0 64 -9 84q-13 29 -59 30l-86 1l-86 1q-71 0 -107 -1q-63 -2 -65 -57q-1 -19 -1 -57zM295 126v-32l1 -32q1 -44 41 -53q30 -8 172 -8
q43 0 133 2q45 1 57 30q9 20 9 93h-413z" />
    <glyph glyph-name="uni2FB3" unicode="&#x97f3;" 
d="M179 653q-24 0 -24 24q0 9 6 16q7 7 18 7h294l-2 92q0 24 29 24q28 0 28 -24l-1 -92h292q11 0 18 -7q6 -7 6 -16q0 -24 -24 -24h-640zM113 417q-24 0 -24 24q0 9 6 16q7 7 18 7l268 -1l-1 3q-32 64 -83 120q-5 7 -5 11q0 23 26 23q22 0 69 -62q44 -60 44 -77q0 -9 -7 -18
h139q43 69 69 143q7 19 25 19q12 0 21 -8t9 -19q0 -15 -33 -73q-11 -20 -24 -41q-5 -8 -9 -14q-3 -6 -4 -7l269 1q11 0 18 -7q6 -7 6 -16q0 -24 -24 -24h-773zM729 -13q-28 -27 -73 -28l-39 -1h-38q-41 -1 -71 -1q-76 0 -159 3q-97 3 -102 90q-2 62 -2 93t2 95q2 36 26 59
q27 26 74 27q41 1 116 1q39 0 92 -1h51l27 -1h28q41 -1 69 -24q26 -23 28 -55q1 -21 2 -48v-49q0 -64 -2 -97q-2 -38 -29 -63zM708 167q0 64 -9 84q-13 29 -59 30l-86 1l-86 1q-71 0 -107 -1q-63 -2 -65 -57q-1 -19 -1 -57zM295 126v-32l1 -32q1 -44 41 -53q30 -8 172 -8
q43 0 133 2q45 1 57 30q9 20 9 93h-413z" />
    <glyph glyph-name="uni4E16" unicode="&#x4e16;" 
d="M836 53q23 0 23 -24q0 -25 -26 -27q-97 -5 -250 -5q-131 0 -210 4q-134 6 -137 127q-1 35 -1 126v102q0 60 1 108l-145 -1q-26 0 -26 24q0 26 26 26l145 -1q2 158 2 208q0 24 28 24q11 0 18 -6q9 -6 9 -17q0 -49 -2 -209h170v238q0 23 28 23q25 0 25 -21v-1
q-2 -102 -2 -239h177v126q-1 80 -1 104q0 23 26 23t26 -23q0 -26 1 -105v-125l172 1q13 0 20 -8q7 -7 7 -17q0 -25 -27 -25l-172 1q0 -96 -2 -178q-1 -54 -41 -73q-28 -13 -91 -13q-76 0 -103 11q-42 18 -43 75v178h-171v-82q-1 -54 -1 -78q0 -97 2 -171q2 -61 52 -76
q37 -11 191 -11q144 0 301 7h1zM512 464q0 -93 2 -165q1 -31 16 -42q17 -13 67 -13q48 0 67 10q22 11 23 44q2 68 2 166h-177z" />
    <glyph glyph-name="uni4EEE" unicode="&#x4eee;" 
d="M487 473q-4 -162 -28 -269q-32 -144 -106 -225q-10 -11 -23 -11q-27 0 -27 25q0 9 7 17q76 85 106 227q21 104 21 265q0 26 -1 73q-1 48 -1 70q0 85 96 88q40 1 96 1q62 1 118 1q95 0 129 -1q11 0 18 -8q6 -7 6 -17q0 -24 -24 -24q-106 2 -242 2q-69 0 -89 -1
q-54 -1 -54 -58v-54q-1 -37 -1 -57h292q72 0 72 -63q0 -17 -6 -45q-7 -32 -21 -69q-35 -96 -99 -183q81 -98 202 -148q19 -9 19 -26q0 -29 -30 -29q-8 0 -28 9q-25 11 -53 29q-79 49 -142 125q-66 -78 -152 -131q-30 -20 -57 -32q-22 -10 -29 -10q-27 0 -27 26q0 17 17 24
q125 52 217 163q-101 145 -113 316h-63zM205 -35l14 535q-67 -90 -106 -123q-14 -12 -23 -17q-4 -2 -7 -3h-5q-26 0 -26 26q0 12 10 21q173 156 253 364q7 17 24 17q12 0 22 -8q10 -9 10 -21q0 -9 -27 -59q-31 -60 -72 -121l-11 -610q-2 -25 -30 -25q-26 0 -26 23v1z
M595 473q18 -156 99 -274q54 78 83 166q9 29 14 55q2 10 3 18q1 6 1 8q0 27 -34 27h-166z" />
    <glyph glyph-name="uni540D" unicode="&#x540d;" 
d="M866 176l1 -64q0 -34 -1 -51q-2 -38 -27 -62q-28 -27 -75 -28q-76 -3 -152 -3q-172 0 -206 19q-23 13 -31 43q-7 25 -7 84q0 26 1 62l1 29l1 29q0 18 8 34q-88 -51 -182 -85q-31 -11 -57 -18q-10 -3 -17 -5q-6 -1 -7 -1q-27 0 -27 27q0 21 22 26q200 50 366 182
q-56 44 -129 74q-13 6 -13 19q0 10 8 17q8 8 20 8q16 0 71 -30q54 -30 83 -54q75 67 132 139q47 62 47 79t-28 17q-33 0 -103 -1q-69 0 -125 -1q-82 -90 -188 -169q-95 -72 -120 -72q-27 0 -27 26q0 17 17 25q203 107 345 308q8 12 22 12q11 0 21 -9t10 -19q0 -6 -5 -13
l-37 -44q17 0 51 1l54 1q66 1 100 1h2q35 0 55 -16q18 -16 18 -40q0 -21 -15 -44q-114 -170 -286 -291l5 1h5q32 1 73 2h150q42 -1 75 -2q42 -1 70 -25q27 -22 29 -54zM805 44q9 18 9 71q0 106 -8 129q-10 29 -54 30l-68 1l-69 1q-31 0 -68 -1q-25 0 -65 -1q-56 -1 -60 -53
q-2 -46 -2 -90q0 -12 1 -33v-29q1 -39 34 -48q28 -7 148 -7q72 0 148 3q41 1 54 27z" />
    <glyph glyph-name="uni57FA" unicode="&#x57fa;" 
d="M641 311q117 -115 273 -160q18 -6 18 -25q0 -30 -29 -30q-10 0 -38 11q-36 13 -75 36q-114 64 -204 168h-174q-79 -97 -192 -170q-43 -28 -80 -45q-34 -16 -48 -16q-27 0 -27 25q0 18 19 25q162 58 270 181l-253 -2q-11 0 -17 7t-6 16q0 23 23 23l211 -1v294l-162 -1
q-11 0 -17 7t-6 16q0 23 23 23h162v96q0 21 26 21t26 -21v-97h269v97q0 22 26 22q10 0 17 -5q8 -6 8 -17v-96h167q23 0 23 -23q0 -9 -5 -16q-7 -7 -18 -7l-167 1v-294l216 1q11 0 18 -7q5 -7 5 -16q0 -23 -22 -23zM181 -24q-22 0 -22 23q0 22 22 22l293 -1v106l-164 -1
q-23 0 -23 22t23 22h164l-1 71q0 24 27 24q26 0 26 -24l-1 -71h167q22 0 22 -22t-22 -22l-167 1v-106l300 1q22 0 22 -23q0 -22 -22 -22h-644zM633 648l-132 1l-137 -1v-70h269v70zM633 540h-269v-72h269v72zM633 430h-269v-76l136 -1l133 1v76z" />
    <glyph glyph-name="uni5E73" unicode="&#x5e73;" 
d="M642 419q-26 0 -26 24q0 10 7 17q78 84 115 156q7 14 22 14q12 0 21 -8q10 -9 10 -21q0 -15 -47 -78q-46 -62 -80 -94q-10 -10 -22 -10zM528 305v-338q0 -27 -28 -27t-28 27v338l-364 -1q-25 0 -25 24q0 25 25 25l364 -1l1 344l-310 -1q-25 0 -25 25q0 24 25 24h676
q23 0 23 -24q0 -25 -23 -25l-312 1l1 -344l365 1q24 0 24 -25q0 -24 -23 -24zM370 434q-10 -9 -22 -9q-15 0 -22 15q-17 36 -55 80q-31 36 -55 55q-8 7 -8 16q0 25 28 25q22 0 83 -68q61 -69 61 -92q0 -13 -10 -22z" />
    <glyph glyph-name="uni62D7" unicode="&#x62d7;" 
d="M700 773q0 24 26 24t26 -24l-1 -174h32l29 -1q40 -1 64 -24q25 -24 26 -66q1 -39 1 -122q0 -206 -33 -299q-39 -108 -133 -108q-30 0 -74 13q-18 6 -18 27q0 11 6 18q6 9 17 9q6 0 12 -3q30 -12 57 -12q64 0 91 90q25 84 25 274q0 71 -1 102q-1 54 -54 56q-6 0 -22 1h-26
q-4 -196 -50 -329q-59 -172 -195 -267q-8 -7 -19 -7q-26 0 -26 26q0 13 12 21q88 61 140 150l-1 1h-2q-2 2 -4 5q-7 8 -14 25q-55 -22 -157 -57q-107 -37 -118 -37q-24 0 -24 26q0 16 16 20l27 7q56 73 122 195q-22 36 -65 82q-35 38 -68 65q-8 7 -8 16q0 23 24 23
q12 0 43 -28q27 53 54 122q30 80 40 132q4 19 25 19q12 0 20 -7q9 -7 9 -20q0 -25 -44 -132q-43 -103 -70 -147q34 -35 64 -79q49 99 66 150q6 17 24 17q28 0 28 -24q0 -6 -15 -40q-16 -37 -41 -86q-67 -128 -143 -238q40 12 94 30q18 7 43 15l18 6q12 4 17 6q-9 14 -20 29
q-8 10 -20 24q-4 5 -4 11q0 19 23 19q17 0 47 -41q12 -16 23 -34q10 -17 15 -28q62 138 64 358h-50l-25 -1h-24q-23 0 -23 23q0 9 6 16t17 7l49 1h50v174zM199 288q-34 -15 -62 -26q-36 -14 -45 -14q-25 0 -25 25q0 17 17 23q59 20 115 43v212l-104 -1q-24 0 -24 23
q0 24 24 24l104 -1v184q0 25 26 25q10 0 17 -6q8 -7 8 -19l-1 -184l85 1q11 0 18 -7q5 -7 5 -16q0 -24 -23 -24l-85 1v-190q46 22 77 40q4 2 7 2q23 0 23 -25v-3l-2 -4q-3 -5 -12 -12q-23 -17 -93 -49v-106q0 -16 1 -65q0 -57 1 -80v-7q0 -96 -98 -96q-78 0 -78 32
q0 25 22 25h5q29 -6 49 -6q47 0 48 58v223z" />
    <glyph glyph-name="uni672C" unicode="&#x672c;" 
d="M525 160v-195q0 -22 -26 -22t-26 22v195h-155q-21 0 -21 22q0 24 21 24h155v45l2 257q-134 -230 -354 -398q-9 -8 -21 -8q-28 0 -28 27q0 13 14 23q225 152 364 400l-323 -3q-26 0 -26 23q0 26 26 26h346v190q0 22 26 22t26 -22v-190h344q24 0 24 -25q0 -24 -24 -24
l-322 3q131 -219 365 -373q16 -10 16 -26q0 -11 -9 -20q-10 -9 -23 -9q-11 0 -21 7q-93 68 -185 165q-105 111 -167 218l2 -263v-45h156q20 0 20 -23q0 -9 -5 -16t-15 -7h-156z" />
    <glyph glyph-name="uni6FC1" unicode="&#x6fc1;" 
d="M339 346q-10 -8 -20 -8q-28 0 -28 24q0 10 11 20q105 84 162 188l-20 1h-19q-57 1 -74 26q-11 14 -11 55q0 65 11 84q16 27 74 28q45 1 108 1h113q111 0 160 -1q55 -1 72 -30q10 -17 10 -63q0 -55 -12 -74q-16 -25 -70 -26q-100 -2 -168 -2l-62 1h-60q0 -19 -50 -85
q62 1 176 1h156q42 0 69 -25t28 -65q0 -13 1 -43v-47q0 -161 -33 -243q-45 -112 -160 -112q-40 0 -90 14q-19 6 -19 26q0 27 24 27q4 0 12 -2q41 -13 73 -13q67 0 101 61q41 73 41 243q0 37 -2 81q-2 53 -61 55h-230q-82 0 -120 -1q-40 -48 -93 -96zM524 196q-112 0 -141 14
q-28 14 -28 67q0 58 22 70q25 13 147 13v54q0 23 25 23q24 0 24 -23v-53q122 0 145 -10q28 -11 28 -68q0 -56 -22 -70q-29 -17 -151 -17v-78q25 3 56 8l13 2l12 2q15 2 22 3q-21 25 -21 29q0 16 22 16q16 0 55 -43q38 -44 38 -61q0 -24 -24 -24q-11 0 -17 11q-6 12 -24 36
q-66 -15 -208 -35q-138 -20 -169 -20q-12 0 -19 8q-7 7 -7 17q0 24 24 25q90 5 198 19v85zM115 -33q-11 0 -20 8q-9 9 -9 20q0 10 6 17q77 97 135 260q5 15 24 15q11 0 18 -6q9 -7 9 -18q0 -1 -2 -9q-3 -8 -7 -20q-11 -31 -25 -66q-45 -105 -101 -184q-11 -17 -28 -17z
M710 608q16 0 45 1h40q29 0 38 12q7 11 7 45t-8 45q-9 13 -38 13h-19l-21 1h-44v-117zM509 725h-39q-26 -1 -37 -1q-29 0 -37 -12q-7 -11 -7 -47q0 -33 6 -43q8 -12 38 -13h36l19 -1h21v117zM663 725h-107v-118l54 1h53v117zM573 233q92 0 109 6q18 6 18 40q0 33 -16 39
q-17 6 -111 6v-91zM524 324q-87 0 -105 -7q-18 -6 -18 -38q0 -33 16 -39q17 -7 107 -7v91zM201 422q-56 45 -124 71q-13 4 -13 18q0 10 8 18t19 8q15 0 61 -21q50 -23 80 -47q13 -10 13 -24q0 -30 -27 -30q-9 0 -17 7zM249 641q-24 27 -61 54q-14 10 -30 20q-11 7 -24 15
q-10 6 -10 15q0 10 9 18t19 8q18 0 79 -41q64 -44 64 -68q0 -11 -9 -21q-8 -9 -19 -9q-10 0 -18 9z" />
    <glyph glyph-name="uni7279" unicode="&#x7279;" 
d="M245 280q-14 -6 -33 -15q-24 -10 -45 -18q-57 -23 -67 -23q-11 0 -18 8q-7 7 -7 17q0 18 17 24q97 35 153 59l1 211l-90 -1q-21 -98 -37 -132q-14 -28 -34 -28q-23 0 -23 20q0 5 3 12q55 116 62 280q0 11 8 18q7 6 17 6q26 0 26 -24q0 -17 -14 -105h82l1 192q0 24 26 24
t26 -24l-1 -192h97q23 0 23 -23q0 -9 -5 -16q-7 -7 -18 -7h-97l-1 -188q43 20 90 47l4 2h4q22 0 22 -23q0 -11 -20 -25q-24 -16 -100 -52l-1 -339q0 -23 -26 -23t-26 23zM426 454q-11 0 -18 7t-7 16q0 22 24 22h200v126l-159 -1q-24 0 -24 23q0 22 24 22h159l-1 111
q0 24 27 24q11 0 18 -6q9 -7 9 -18v-111h182q23 0 23 -22q0 -23 -23 -23l-183 1v-126h237q22 0 22 -22q0 -23 -22 -23h-488zM738 282h-312q-24 0 -24 23q0 22 24 22l311 -1v69q0 24 26 24q25 0 25 -23l1 -70l132 1q22 0 22 -22q0 -23 -22 -23h-132l1 -125l3 -100v-6
q0 -44 -23 -69q-32 -34 -104 -34q-99 0 -99 34q0 26 25 26h5q52 -9 76 -9q66 0 66 63zM599 100q-21 27 -59 54q-15 10 -31 19q-14 8 -25 13q-12 6 -12 16q0 24 26 24q22 0 82 -39q64 -43 64 -70q0 -29 -25 -29q-11 0 -20 12z" />
    <glyph glyph-name="uni754C" unicode="&#x754c;" 
d="M244 220q-52 -31 -99 -53q-39 -18 -47 -18q-26 0 -26 26q0 17 17 24q214 90 355 228q-43 -1 -63 -1q-35 -1 -58 -1h-23q-49 1 -78 28q-27 25 -28 64l-1 46v44q0 57 1 84q1 34 26 60q29 28 78 29q39 1 86 1q56 1 108 1q98 0 212 -2q46 -1 74 -28q24 -23 26 -55
q2 -26 2 -88v-47q-1 -25 -2 -44q-2 -38 -30 -64q-29 -28 -74 -29h-26q-25 0 -59 1q-23 0 -61 1q123 -114 361 -212q17 -7 17 -25q0 -29 -29 -29q-11 0 -53 20q-48 22 -103 54q-151 89 -246 189q-105 -113 -257 -204zM523 587v-121q72 0 162 2q48 1 61 32q9 20 9 87h-232z
M472 587h-230q0 -41 1 -57q3 -60 68 -62q38 -1 74 -1q46 -1 87 -1v121zM755 627q0 63 -9 82q-13 28 -62 30q-78 2 -161 2v-114h232zM411 265q-6 -194 -155 -280q-75 -43 -148 -48q-24 0 -24 26q0 21 17 24q133 18 198 98q57 70 57 180q0 12 9 19t20 7q26 0 26 -25v-1z
M472 741q-86 0 -162 -2q-63 -1 -67 -62q-1 -14 -1 -50h230v114zM581 269q0 25 26 25q27 0 27 -25v-299q0 -26 -26 -26q-27 0 -27 26v299z" />
  </font>
</defs>
</svg>
